<mxfile host="app.diagrams.net" agent="Mozilla/5.0 (Windows NT 10.0; Win64; x64) AppleWebKit/537.36 (KHTML, like Gecko) Chrome/130.0.0.0 Safari/537.36" version="24.8.1">
  <diagram name="PÃ¡gina-1" id="KmCVRfMT4F6jA_XnfV2W">
    <mxGraphModel dx="4302" dy="2077" grid="1" gridSize="10" guides="1" tooltips="1" connect="1" arrows="1" fold="1" page="1" pageScale="1" pageWidth="827" pageHeight="1169" math="0" shadow="0">
      <root>
        <mxCell id="0" />
        <mxCell id="1" parent="0" />
        <mxCell id="2LizQKYZ_lhDby8cQk81-78" value="User" style="rounded=0;whiteSpace=wrap;html=1;fillColor=#ffe6cc;strokeColor=#d79b00;" parent="1" vertex="1">
          <mxGeometry x="-1560" y="-720" width="120" height="60" as="geometry" />
        </mxCell>
        <mxCell id="2LizQKYZ_lhDby8cQk81-79" value="" style="endArrow=none;html=1;rounded=0;entryX=0.75;entryY=0;entryDx=0;entryDy=0;exitX=0.373;exitY=0.983;exitDx=0;exitDy=0;exitPerimeter=0;" parent="1" source="2LizQKYZ_lhDby8cQk81-80" target="2LizQKYZ_lhDby8cQk81-78" edge="1">
          <mxGeometry width="50" height="50" relative="1" as="geometry">
            <mxPoint x="-1590" y="-760" as="sourcePoint" />
            <mxPoint x="-1140" y="-520" as="targetPoint" />
          </mxGeometry>
        </mxCell>
        <mxCell id="2LizQKYZ_lhDby8cQk81-80" value="&lt;u&gt;id&lt;/u&gt;" style="ellipse;whiteSpace=wrap;html=1;fillColor=#dae8fc;strokeColor=#6c8ebf;" parent="1" vertex="1">
          <mxGeometry x="-1425" y="-807.5" width="90" height="60" as="geometry" />
        </mxCell>
        <mxCell id="2LizQKYZ_lhDby8cQk81-81" value="" style="endArrow=none;html=1;rounded=0;entryX=0.588;entryY=0.001;entryDx=0;entryDy=0;exitX=0.45;exitY=1.009;exitDx=0;exitDy=0;exitPerimeter=0;entryPerimeter=0;" parent="1" source="2LizQKYZ_lhDby8cQk81-82" target="2LizQKYZ_lhDby8cQk81-78" edge="1">
          <mxGeometry width="50" height="50" relative="1" as="geometry">
            <mxPoint x="-1620" y="-682" as="sourcePoint" />
            <mxPoint x="-1590" y="-642" as="targetPoint" />
          </mxGeometry>
        </mxCell>
        <mxCell id="2LizQKYZ_lhDby8cQk81-82" value="pass_hash" style="ellipse;whiteSpace=wrap;html=1;fillColor=#d5e8d4;strokeColor=#82b366;" parent="1" vertex="1">
          <mxGeometry x="-1515" y="-860" width="90" height="60" as="geometry" />
        </mxCell>
        <mxCell id="2LizQKYZ_lhDby8cQk81-83" value="" style="endArrow=none;html=1;rounded=0;entryX=0.413;entryY=-0.004;entryDx=0;entryDy=0;exitX=0.5;exitY=1;exitDx=0;exitDy=0;entryPerimeter=0;" parent="1" source="2LizQKYZ_lhDby8cQk81-84" target="2LizQKYZ_lhDby8cQk81-78" edge="1">
          <mxGeometry width="50" height="50" relative="1" as="geometry">
            <mxPoint x="-1692.8999999999999" y="-748" as="sourcePoint" />
            <mxPoint x="-1562" y="-690" as="targetPoint" />
          </mxGeometry>
        </mxCell>
        <mxCell id="2LizQKYZ_lhDby8cQk81-84" value="username&lt;span style=&quot;color: rgba(0, 0, 0, 0); font-family: monospace; font-size: 0px; text-align: start; text-wrap: nowrap;&quot;&gt;%3CmxGraphModel%3E%3Croot%3E%3CmxCell%20id%3D%220%22%2F%3E%3CmxCell%20id%3D%221%22%20parent%3D%220%22%2F%3E%3CmxCell%20id%3D%222%22%20value%3D%22%22%20style%3D%22endArrow%3Dnone%3Bhtml%3D1%3Brounded%3D0%3BentryX%3D0.01%3BentryY%3D0.333%3BentryDx%3D0%3BentryDy%3D0%3BexitX%3D0.67%3BexitY%3D0.943%3BexitDx%3D0%3BexitDy%3D0%3BexitPerimeter%3D0%3BentryPerimeter%3D0%3B%22%20edge%3D%221%22%20source%3D%223%22%20parent%3D%221%22%3E%3CmxGeometry%20width%3D%2250%22%20height%3D%2250%22%20relative%3D%221%22%20as%3D%22geometry%22%3E%3CmxPoint%20x%3D%22-1620%22%20y%3D%22268%22%20as%3D%22sourcePoint%22%2F%3E%3CmxPoint%20x%3D%22-1559%22%20y%3D%22250%22%20as%3D%22targetPoint%22%2F%3E%3C%2FmxGeometry%3E%3C%2FmxCell%3E%3CmxCell%20id%3D%223%22%20value%3D%22pass_hash%22%20style%3D%22ellipse%3BwhiteSpace%3Dwrap%3Bhtml%3D1%3B%22%20vertex%3D%221%22%20parent%3D%221%22%3E%3CmxGeometry%20x%3D%22-1710%22%20y%3D%22110%22%20width%3D%2290%22%20height%3D%2260%22%20as%3D%22geometry%22%2F%3E%3C%2FmxCell%3E%3C%2Froot%3E%3C%2FmxGraphModel%3E&lt;/span&gt;" style="ellipse;whiteSpace=wrap;html=1;fillColor=#d5e8d4;strokeColor=#82b366;" parent="1" vertex="1">
          <mxGeometry x="-1615" y="-847.5" width="90" height="60" as="geometry" />
        </mxCell>
        <mxCell id="2LizQKYZ_lhDby8cQk81-85" value="" style="endArrow=none;html=1;rounded=0;entryX=0.168;entryY=-0.004;entryDx=0;entryDy=0;exitX=1;exitY=1;exitDx=0;exitDy=0;entryPerimeter=0;" parent="1" source="2LizQKYZ_lhDby8cQk81-86" target="2LizQKYZ_lhDby8cQk81-78" edge="1">
          <mxGeometry width="50" height="50" relative="1" as="geometry">
            <mxPoint x="-1701" y="-577" as="sourcePoint" />
            <mxPoint x="-1640" y="-595" as="targetPoint" />
          </mxGeometry>
        </mxCell>
        <mxCell id="2LizQKYZ_lhDby8cQk81-86" value="email" style="ellipse;whiteSpace=wrap;html=1;fillColor=#d5e8d4;strokeColor=#82b366;" parent="1" vertex="1">
          <mxGeometry x="-1680" y="-800" width="90" height="60" as="geometry" />
        </mxCell>
        <mxCell id="2LizQKYZ_lhDby8cQk81-98" value="Invitation_Register" style="rounded=0;whiteSpace=wrap;html=1;fillColor=#ffe6cc;strokeColor=#d79b00;" parent="1" vertex="1">
          <mxGeometry x="-1005" y="-710" width="120" height="60" as="geometry" />
        </mxCell>
        <mxCell id="2LizQKYZ_lhDby8cQk81-99" value="Create" style="rhombus;whiteSpace=wrap;html=1;" parent="1" vertex="1">
          <mxGeometry x="-1180" y="-720" width="80" height="80" as="geometry" />
        </mxCell>
        <mxCell id="2LizQKYZ_lhDby8cQk81-100" value="" style="endArrow=none;html=1;rounded=0;entryX=0;entryY=0.5;entryDx=0;entryDy=0;exitX=1;exitY=0.5;exitDx=0;exitDy=0;" parent="1" source="2LizQKYZ_lhDby8cQk81-99" target="2LizQKYZ_lhDby8cQk81-98" edge="1">
          <mxGeometry width="50" height="50" relative="1" as="geometry">
            <mxPoint x="-960" y="-360" as="sourcePoint" />
            <mxPoint x="-910" y="-410" as="targetPoint" />
          </mxGeometry>
        </mxCell>
        <mxCell id="2LizQKYZ_lhDby8cQk81-101" value="" style="endArrow=none;html=1;rounded=0;entryX=0.5;entryY=0;entryDx=0;entryDy=0;exitX=0.5;exitY=1;exitDx=0;exitDy=0;" parent="1" source="2LizQKYZ_lhDby8cQk81-102" target="2LizQKYZ_lhDby8cQk81-98" edge="1">
          <mxGeometry width="50" height="50" relative="1" as="geometry">
            <mxPoint x="-780" y="-710" as="sourcePoint" />
            <mxPoint x="-910" y="-410" as="targetPoint" />
          </mxGeometry>
        </mxCell>
        <mxCell id="2LizQKYZ_lhDby8cQk81-102" value="&lt;u&gt;id&lt;/u&gt;" style="ellipse;whiteSpace=wrap;html=1;fillColor=#dae8fc;strokeColor=#6c8ebf;" parent="1" vertex="1">
          <mxGeometry x="-964" y="-840" width="100" height="45" as="geometry" />
        </mxCell>
        <mxCell id="2LizQKYZ_lhDby8cQk81-103" value="" style="endArrow=none;html=1;rounded=0;exitX=0.4;exitY=0.967;exitDx=0;exitDy=0;exitPerimeter=0;" parent="1" source="2LizQKYZ_lhDby8cQk81-104" target="2LizQKYZ_lhDby8cQk81-98" edge="1">
          <mxGeometry width="50" height="50" relative="1" as="geometry">
            <mxPoint x="-790" y="-660" as="sourcePoint" />
            <mxPoint x="-840" y="-630" as="targetPoint" />
          </mxGeometry>
        </mxCell>
        <mxCell id="2LizQKYZ_lhDby8cQk81-104" value="expired" style="ellipse;whiteSpace=wrap;html=1;fillColor=#d5e8d4;strokeColor=#82b366;" parent="1" vertex="1">
          <mxGeometry x="-880" y="-792.5" width="100" height="45" as="geometry" />
        </mxCell>
        <mxCell id="2LizQKYZ_lhDby8cQk81-105" value="N" style="text;html=1;align=center;verticalAlign=middle;whiteSpace=wrap;rounded=0;" parent="1" vertex="1">
          <mxGeometry x="-1110" y="-710" width="60" height="30" as="geometry" />
        </mxCell>
        <mxCell id="2LizQKYZ_lhDby8cQk81-106" value="1" style="text;html=1;align=center;verticalAlign=middle;whiteSpace=wrap;rounded=0;" parent="1" vertex="1">
          <mxGeometry x="-1240" y="-710" width="60" height="30" as="geometry" />
        </mxCell>
        <mxCell id="2LizQKYZ_lhDby8cQk81-107" value="" style="endArrow=none;html=1;rounded=0;exitX=1.007;exitY=0.657;exitDx=0;exitDy=0;exitPerimeter=0;entryX=1;entryY=1;entryDx=0;entryDy=0;" parent="1" source="2LizQKYZ_lhDby8cQk81-78" target="2LizQKYZ_lhDby8cQk81-106" edge="1">
          <mxGeometry width="50" height="50" relative="1" as="geometry">
            <mxPoint x="-1190" y="-590" as="sourcePoint" />
            <mxPoint x="-1140" y="-640" as="targetPoint" />
          </mxGeometry>
        </mxCell>
        <mxCell id="2LizQKYZ_lhDby8cQk81-121" value="Authentication Token" style="rounded=0;whiteSpace=wrap;html=1;fillColor=#ffe6cc;strokeColor=#d79b00;" parent="1" vertex="1">
          <mxGeometry x="-2010" y="-710" width="120" height="60" as="geometry" />
        </mxCell>
        <mxCell id="2LizQKYZ_lhDby8cQk81-122" value="Has" style="rhombus;whiteSpace=wrap;html=1;" parent="1" vertex="1">
          <mxGeometry x="-1790" y="-720" width="80" height="80" as="geometry" />
        </mxCell>
        <mxCell id="2LizQKYZ_lhDby8cQk81-123" value="" style="endArrow=none;html=1;rounded=0;exitX=0.083;exitY=0;exitDx=0;exitDy=0;exitPerimeter=0;entryX=0.6;entryY=0.125;entryDx=0;entryDy=0;entryPerimeter=0;" parent="1" source="2LizQKYZ_lhDby8cQk81-121" target="2LizQKYZ_lhDby8cQk81-124" edge="1">
          <mxGeometry width="50" height="50" relative="1" as="geometry">
            <mxPoint x="-1850" y="-445" as="sourcePoint" />
            <mxPoint x="-1868.0717361776112" y="-452.9739867396627" as="targetPoint" />
          </mxGeometry>
        </mxCell>
        <mxCell id="2LizQKYZ_lhDby8cQk81-124" value="last_used_at" style="ellipse;whiteSpace=wrap;html=1;fillColor=#d5e8d4;strokeColor=#82b366;" parent="1" vertex="1">
          <mxGeometry x="-2030" y="-827.5" width="100" height="40" as="geometry" />
        </mxCell>
        <mxCell id="2LizQKYZ_lhDby8cQk81-127" value="" style="endArrow=none;html=1;rounded=0;entryX=0.75;entryY=0;entryDx=0;entryDy=0;exitX=0.5;exitY=1;exitDx=0;exitDy=0;" parent="1" source="2LizQKYZ_lhDby8cQk81-128" target="2LizQKYZ_lhDby8cQk81-121" edge="1">
          <mxGeometry width="50" height="50" relative="1" as="geometry">
            <mxPoint x="-1780" y="-435" as="sourcePoint" />
            <mxPoint x="-1570" y="-445" as="targetPoint" />
          </mxGeometry>
        </mxCell>
        <mxCell id="2LizQKYZ_lhDby8cQk81-128" value="&lt;u&gt;token_hash&lt;/u&gt;" style="ellipse;whiteSpace=wrap;html=1;fillColor=#dae8fc;strokeColor=#6c8ebf;" parent="1" vertex="1">
          <mxGeometry x="-1940" y="-800" width="80" height="55" as="geometry" />
        </mxCell>
        <mxCell id="2LizQKYZ_lhDby8cQk81-129" style="edgeStyle=orthogonalEdgeStyle;rounded=0;orthogonalLoop=1;jettySize=auto;html=1;exitX=0.5;exitY=1;exitDx=0;exitDy=0;" parent="1" edge="1">
          <mxGeometry relative="1" as="geometry">
            <mxPoint x="-1890" y="-415" as="sourcePoint" />
            <mxPoint x="-1890" y="-415" as="targetPoint" />
          </mxGeometry>
        </mxCell>
        <mxCell id="2LizQKYZ_lhDby8cQk81-130" value="1" style="text;html=1;align=center;verticalAlign=middle;resizable=0;points=[];autosize=1;strokeColor=none;fillColor=none;" parent="1" vertex="1">
          <mxGeometry x="-1710" y="-710" width="30" height="30" as="geometry" />
        </mxCell>
        <mxCell id="2LizQKYZ_lhDby8cQk81-131" value="N" style="text;html=1;align=center;verticalAlign=middle;resizable=0;points=[];autosize=1;strokeColor=none;fillColor=none;" parent="1" vertex="1">
          <mxGeometry x="-1820" y="-710" width="30" height="30" as="geometry" />
        </mxCell>
        <mxCell id="2LizQKYZ_lhDby8cQk81-132" value="" style="endArrow=none;html=1;rounded=0;exitX=0;exitY=0.5;exitDx=0;exitDy=0;" parent="1" source="2LizQKYZ_lhDby8cQk81-122" edge="1">
          <mxGeometry width="50" height="50" relative="1" as="geometry">
            <mxPoint x="-1780" y="-710" as="sourcePoint" />
            <mxPoint x="-1890" y="-680" as="targetPoint" />
          </mxGeometry>
        </mxCell>
        <mxCell id="2LizQKYZ_lhDby8cQk81-133" value="" style="endArrow=none;html=1;rounded=0;entryX=-0.002;entryY=0.669;entryDx=0;entryDy=0;entryPerimeter=0;exitX=1;exitY=0.5;exitDx=0;exitDy=0;" parent="1" source="2LizQKYZ_lhDby8cQk81-122" target="2LizQKYZ_lhDby8cQk81-78" edge="1">
          <mxGeometry width="50" height="50" relative="1" as="geometry">
            <mxPoint x="-1580" y="-610" as="sourcePoint" />
            <mxPoint x="-1530" y="-660" as="targetPoint" />
          </mxGeometry>
        </mxCell>
        <mxCell id="2LizQKYZ_lhDby8cQk81-134" value="Join" style="rhombus;whiteSpace=wrap;html=1;" parent="1" vertex="1">
          <mxGeometry x="-1594.8400000000001" y="-540" width="70" height="60" as="geometry" />
        </mxCell>
        <mxCell id="2LizQKYZ_lhDby8cQk81-137" value="" style="endArrow=none;html=1;rounded=0;" parent="1" edge="1">
          <mxGeometry width="50" height="50" relative="1" as="geometry">
            <mxPoint x="-1560.0000000000002" y="-539" as="sourcePoint" />
            <mxPoint x="-1560" y="-600" as="targetPoint" />
          </mxGeometry>
        </mxCell>
        <mxCell id="2LizQKYZ_lhDby8cQk81-138" value="Create" style="rhombus;whiteSpace=wrap;html=1;" parent="1" vertex="1">
          <mxGeometry x="-1475.0000000000002" y="-540" width="70" height="60" as="geometry" />
        </mxCell>
        <mxCell id="2LizQKYZ_lhDby8cQk81-144" value="" style="endArrow=none;html=1;rounded=0;entryX=0.5;entryY=1;entryDx=0;entryDy=0;" parent="1" target="2LizQKYZ_lhDby8cQk81-78" edge="1">
          <mxGeometry width="50" height="50" relative="1" as="geometry">
            <mxPoint x="-1500" y="-600" as="sourcePoint" />
            <mxPoint x="-1140" y="-550" as="targetPoint" />
          </mxGeometry>
        </mxCell>
        <mxCell id="2LizQKYZ_lhDby8cQk81-145" value="" style="endArrow=none;html=1;rounded=0;" parent="1" edge="1">
          <mxGeometry width="50" height="50" relative="1" as="geometry">
            <mxPoint x="-1500" y="-600" as="sourcePoint" />
            <mxPoint x="-1560" y="-600" as="targetPoint" />
          </mxGeometry>
        </mxCell>
        <mxCell id="2LizQKYZ_lhDby8cQk81-146" value="" style="endArrow=none;html=1;rounded=0;" parent="1" edge="1">
          <mxGeometry width="50" height="50" relative="1" as="geometry">
            <mxPoint x="-1440" y="-600" as="sourcePoint" />
            <mxPoint x="-1500" y="-600" as="targetPoint" />
          </mxGeometry>
        </mxCell>
        <mxCell id="2LizQKYZ_lhDby8cQk81-147" value="" style="endArrow=none;html=1;rounded=0;" parent="1" edge="1">
          <mxGeometry width="50" height="50" relative="1" as="geometry">
            <mxPoint x="-1440" y="-540" as="sourcePoint" />
            <mxPoint x="-1440.4000000000003" y="-600" as="targetPoint" />
          </mxGeometry>
        </mxCell>
        <mxCell id="2LizQKYZ_lhDby8cQk81-148" value="" style="endArrow=none;html=1;rounded=0;" parent="1" edge="1">
          <mxGeometry width="50" height="50" relative="1" as="geometry">
            <mxPoint x="-1560" y="-450" as="sourcePoint" />
            <mxPoint x="-1560.4000000000003" y="-480" as="targetPoint" />
          </mxGeometry>
        </mxCell>
        <mxCell id="2LizQKYZ_lhDby8cQk81-149" value="" style="endArrow=none;html=1;rounded=0;" parent="1" edge="1">
          <mxGeometry width="50" height="50" relative="1" as="geometry">
            <mxPoint x="-1440" y="-450" as="sourcePoint" />
            <mxPoint x="-1440.4000000000003" y="-480" as="targetPoint" />
          </mxGeometry>
        </mxCell>
        <mxCell id="2LizQKYZ_lhDby8cQk81-150" value="" style="endArrow=none;html=1;rounded=0;" parent="1" edge="1">
          <mxGeometry width="50" height="50" relative="1" as="geometry">
            <mxPoint x="-1560" y="-450" as="sourcePoint" />
            <mxPoint x="-1440" y="-450" as="targetPoint" />
          </mxGeometry>
        </mxCell>
        <mxCell id="2LizQKYZ_lhDby8cQk81-151" value="" style="endArrow=none;html=1;rounded=0;entryX=0.5;entryY=0;entryDx=0;entryDy=0;" parent="1" target="2LizQKYZ_lhDby8cQk81-170" edge="1">
          <mxGeometry width="50" height="50" relative="1" as="geometry">
            <mxPoint x="-1500" y="-450" as="sourcePoint" />
            <mxPoint x="-1500" y="-370" as="targetPoint" />
          </mxGeometry>
        </mxCell>
        <mxCell id="2LizQKYZ_lhDby8cQk81-170" value="Channel" style="rounded=0;whiteSpace=wrap;html=1;fillColor=#ffe6cc;strokeColor=#d79b00;" parent="1" vertex="1">
          <mxGeometry x="-1575" y="-367.5" width="150" height="60" as="geometry" />
        </mxCell>
        <mxCell id="2LizQKYZ_lhDby8cQk81-171" value="" style="endArrow=none;html=1;rounded=0;entryX=0;entryY=0.642;entryDx=0;entryDy=0;exitX=0.938;exitY=0.249;exitDx=0;exitDy=0;exitPerimeter=0;entryPerimeter=0;" parent="1" source="2LizQKYZ_lhDby8cQk81-172" target="2LizQKYZ_lhDby8cQk81-170" edge="1">
          <mxGeometry width="50" height="50" relative="1" as="geometry">
            <mxPoint x="-1620" y="-325" as="sourcePoint" />
            <mxPoint x="-1600" y="-145" as="targetPoint" />
          </mxGeometry>
        </mxCell>
        <mxCell id="2LizQKYZ_lhDby8cQk81-172" value="&lt;u&gt;id&lt;/u&gt;" style="ellipse;whiteSpace=wrap;html=1;fillColor=#dae8fc;strokeColor=#6c8ebf;" parent="1" vertex="1">
          <mxGeometry x="-1754" y="-352.5" width="100" height="40" as="geometry" />
        </mxCell>
        <mxCell id="2LizQKYZ_lhDby8cQk81-177" value="name" style="ellipse;whiteSpace=wrap;html=1;fillColor=#d5e8d4;strokeColor=#82b366;" parent="1" vertex="1">
          <mxGeometry x="-1724" y="-407.5" width="70" height="45" as="geometry" />
        </mxCell>
        <mxCell id="2LizQKYZ_lhDby8cQk81-178" value="" style="endArrow=none;html=1;rounded=0;entryX=1.007;entryY=0.638;entryDx=0;entryDy=0;entryPerimeter=0;exitX=0;exitY=0.25;exitDx=0;exitDy=0;" parent="1" source="2LizQKYZ_lhDby8cQk81-170" target="2LizQKYZ_lhDby8cQk81-177" edge="1">
          <mxGeometry width="50" height="50" relative="1" as="geometry">
            <mxPoint x="-1450" y="-420" as="sourcePoint" />
            <mxPoint x="-1600" y="-205" as="targetPoint" />
          </mxGeometry>
        </mxCell>
        <mxCell id="2LizQKYZ_lhDby8cQk81-179" value="" style="endArrow=none;html=1;rounded=0;entryX=0.5;entryY=1;entryDx=0;entryDy=0;exitX=0.5;exitY=0;exitDx=0;exitDy=0;" parent="1" source="2LizQKYZ_lhDby8cQk81-180" target="2LizQKYZ_lhDby8cQk81-170" edge="1">
          <mxGeometry width="50" height="50" relative="1" as="geometry">
            <mxPoint x="-1500" y="-280" as="sourcePoint" />
            <mxPoint x="-1500.29" y="-350" as="targetPoint" />
          </mxGeometry>
        </mxCell>
        <mxCell id="2LizQKYZ_lhDby8cQk81-180" value="d" style="ellipse;whiteSpace=wrap;html=1;aspect=fixed;" parent="1" vertex="1">
          <mxGeometry x="-1515" y="-230" width="30" height="30" as="geometry" />
        </mxCell>
        <mxCell id="2LizQKYZ_lhDby8cQk81-181" value="" style="endArrow=none;html=1;rounded=0;entryX=0;entryY=1;entryDx=0;entryDy=0;exitX=0.5;exitY=0;exitDx=0;exitDy=0;" parent="1" source="2LizQKYZ_lhDby8cQk81-183" target="2LizQKYZ_lhDby8cQk81-180" edge="1">
          <mxGeometry width="50" height="50" relative="1" as="geometry">
            <mxPoint x="-1565" y="-160" as="sourcePoint" />
            <mxPoint x="-1700" y="-115" as="targetPoint" />
          </mxGeometry>
        </mxCell>
        <mxCell id="2LizQKYZ_lhDby8cQk81-182" value="" style="endArrow=none;html=1;rounded=0;entryX=1;entryY=1;entryDx=0;entryDy=0;exitX=0.5;exitY=0;exitDx=0;exitDy=0;" parent="1" source="2LizQKYZ_lhDby8cQk81-184" target="2LizQKYZ_lhDby8cQk81-180" edge="1">
          <mxGeometry width="50" height="50" relative="1" as="geometry">
            <mxPoint x="-1380" y="-125" as="sourcePoint" />
            <mxPoint x="-1404" y="-176" as="targetPoint" />
          </mxGeometry>
        </mxCell>
        <mxCell id="2LizQKYZ_lhDby8cQk81-183" value="Public" style="rounded=0;whiteSpace=wrap;html=1;fillColor=#ffe6cc;strokeColor=#d79b00;" parent="1" vertex="1">
          <mxGeometry x="-1640" y="-158" width="110" height="55" as="geometry" />
        </mxCell>
        <mxCell id="2LizQKYZ_lhDby8cQk81-184" value="Private" style="rounded=0;whiteSpace=wrap;html=1;fillColor=#ffe6cc;strokeColor=#d79b00;" parent="1" vertex="1">
          <mxGeometry x="-1470" y="-160" width="110" height="55" as="geometry" />
        </mxCell>
        <mxCell id="2LizQKYZ_lhDby8cQk81-190" value="N" style="text;html=1;align=center;verticalAlign=middle;resizable=0;points=[];autosize=1;strokeColor=none;fillColor=none;" parent="1" vertex="1">
          <mxGeometry x="-1585" y="-582" width="30" height="30" as="geometry" />
        </mxCell>
        <mxCell id="2LizQKYZ_lhDby8cQk81-191" value="N" style="text;html=1;align=center;verticalAlign=middle;resizable=0;points=[];autosize=1;strokeColor=none;fillColor=none;" parent="1" vertex="1">
          <mxGeometry x="-1590" y="-482" width="30" height="30" as="geometry" />
        </mxCell>
        <mxCell id="2LizQKYZ_lhDby8cQk81-192" value="1" style="text;html=1;align=center;verticalAlign=middle;resizable=0;points=[];autosize=1;strokeColor=none;fillColor=none;" parent="1" vertex="1">
          <mxGeometry x="-1440" y="-582" width="30" height="30" as="geometry" />
        </mxCell>
        <mxCell id="2LizQKYZ_lhDby8cQk81-193" value="N" style="text;html=1;align=center;verticalAlign=middle;resizable=0;points=[];autosize=1;strokeColor=none;fillColor=none;" parent="1" vertex="1">
          <mxGeometry x="-1440" y="-482" width="30" height="30" as="geometry" />
        </mxCell>
        <mxCell id="2LizQKYZ_lhDby8cQk81-194" value="" style="endArrow=none;html=1;rounded=0;entryX=1;entryY=0.5;entryDx=0;entryDy=0;exitX=0;exitY=0.5;exitDx=0;exitDy=0;" parent="1" source="2LizQKYZ_lhDby8cQk81-196" edge="1">
          <mxGeometry width="50" height="50" relative="1" as="geometry">
            <mxPoint x="-1280" y="-333.64285714285717" as="sourcePoint" />
            <mxPoint x="-1425" y="-332.5" as="targetPoint" />
          </mxGeometry>
        </mxCell>
        <mxCell id="2LizQKYZ_lhDby8cQk81-196" value="" style="rhombus;whiteSpace=wrap;html=1;" parent="1" vertex="1">
          <mxGeometry x="-1150" y="-377.5" width="90" height="90" as="geometry" />
        </mxCell>
        <mxCell id="2LizQKYZ_lhDby8cQk81-197" value="Has" style="rhombus;whiteSpace=wrap;html=1;" parent="1" vertex="1">
          <mxGeometry x="-1145" y="-372.5" width="80" height="80" as="geometry" />
        </mxCell>
        <mxCell id="2LizQKYZ_lhDby8cQk81-200" value="" style="rounded=0;whiteSpace=wrap;html=1;fillColor=#ffe6cc;strokeColor=#d79b00;" parent="1" vertex="1">
          <mxGeometry x="-772.5" y="-367.5" width="120" height="60" as="geometry" />
        </mxCell>
        <mxCell id="2LizQKYZ_lhDby8cQk81-201" value="Message" style="rounded=0;whiteSpace=wrap;html=1;fillColor=#fff2cc;strokeColor=#d6b656;" parent="1" vertex="1">
          <mxGeometry x="-765" y="-362.5" width="105" height="50" as="geometry" />
        </mxCell>
        <mxCell id="2LizQKYZ_lhDby8cQk81-202" value="N" style="text;html=1;align=center;verticalAlign=middle;resizable=0;points=[];autosize=1;strokeColor=none;fillColor=none;" parent="1" vertex="1">
          <mxGeometry x="-1065" y="-367.5" width="30" height="30" as="geometry" />
        </mxCell>
        <mxCell id="2LizQKYZ_lhDby8cQk81-203" value="" style="endArrow=none;html=1;rounded=0;entryX=1;entryY=0.75;entryDx=0;entryDy=0;exitX=0.002;exitY=0.44;exitDx=0;exitDy=0;exitPerimeter=0;entryPerimeter=0;" parent="1" source="2LizQKYZ_lhDby8cQk81-204" target="2LizQKYZ_lhDby8cQk81-200" edge="1">
          <mxGeometry width="50" height="50" relative="1" as="geometry">
            <mxPoint x="-897.5" y="-177.5" as="sourcePoint" />
            <mxPoint x="-862.54" y="-247.5" as="targetPoint" />
          </mxGeometry>
        </mxCell>
        <mxCell id="2LizQKYZ_lhDby8cQk81-204" value="&lt;u&gt;id&lt;/u&gt;" style="ellipse;whiteSpace=wrap;html=1;fillColor=#dae8fc;strokeColor=#6c8ebf;" parent="1" vertex="1">
          <mxGeometry x="-608.75" y="-320" width="90" height="60" as="geometry" />
        </mxCell>
        <mxCell id="2LizQKYZ_lhDby8cQk81-205" value="text" style="ellipse;whiteSpace=wrap;html=1;fillColor=#d5e8d4;strokeColor=#82b366;" parent="1" vertex="1">
          <mxGeometry x="-570" y="-387.5" width="92.5" height="50" as="geometry" />
        </mxCell>
        <mxCell id="2LizQKYZ_lhDby8cQk81-207" value="create_at" style="ellipse;whiteSpace=wrap;html=1;fillColor=#d5e8d4;strokeColor=#82b366;" parent="1" vertex="1">
          <mxGeometry x="-600" y="-451.25" width="92.5" height="50" as="geometry" />
        </mxCell>
        <mxCell id="2LizQKYZ_lhDby8cQk81-208" value="" style="endArrow=none;html=1;rounded=0;entryX=1;entryY=0.25;entryDx=0;entryDy=0;exitX=0;exitY=0.5;exitDx=0;exitDy=0;" parent="1" source="2LizQKYZ_lhDby8cQk81-207" edge="1">
          <mxGeometry width="50" height="50" relative="1" as="geometry">
            <mxPoint x="-704.75" y="-300" as="sourcePoint" />
            <mxPoint x="-690.0000000000005" y="-367.5" as="targetPoint" />
          </mxGeometry>
        </mxCell>
        <mxCell id="2LizQKYZ_lhDby8cQk81-214" value="1" style="text;html=1;align=center;verticalAlign=middle;resizable=0;points=[];autosize=1;strokeColor=none;fillColor=none;" parent="1" vertex="1">
          <mxGeometry x="-1180" y="-367.5" width="30" height="30" as="geometry" />
        </mxCell>
        <mxCell id="2LizQKYZ_lhDby8cQk81-216" value="" style="endArrow=none;html=1;rounded=0;entryX=1;entryY=0.25;entryDx=0;entryDy=0;exitX=0.002;exitY=0.396;exitDx=0;exitDy=0;exitPerimeter=0;" parent="1" source="2LizQKYZ_lhDby8cQk81-205" target="2LizQKYZ_lhDby8cQk81-200" edge="1">
          <mxGeometry width="50" height="50" relative="1" as="geometry">
            <mxPoint x="-712.5" y="-262.5" as="sourcePoint" />
            <mxPoint x="-662.5" y="-312.5" as="targetPoint" />
          </mxGeometry>
        </mxCell>
        <mxCell id="2LizQKYZ_lhDby8cQk81-221" value="" style="endArrow=none;html=1;rounded=0;exitX=0.433;exitY=0.003;exitDx=0;exitDy=0;exitPerimeter=0;" parent="1" source="2LizQKYZ_lhDby8cQk81-200" edge="1">
          <mxGeometry width="50" height="50" relative="1" as="geometry">
            <mxPoint x="-720" y="-420" as="sourcePoint" />
            <mxPoint x="-720" y="-490" as="targetPoint" />
          </mxGeometry>
        </mxCell>
        <mxCell id="2LizQKYZ_lhDby8cQk81-224" value="" style="endArrow=none;html=1;rounded=0;entryX=0.058;entryY=-0.017;entryDx=0;entryDy=0;exitX=0.255;exitY=0.9;exitDx=0;exitDy=0;exitPerimeter=0;entryPerimeter=0;" parent="1" source="2LizQKYZ_lhDby8cQk81-225" target="2LizQKYZ_lhDby8cQk81-98" edge="1">
          <mxGeometry width="50" height="50" relative="1" as="geometry">
            <mxPoint x="-780" y="-780" as="sourcePoint" />
            <mxPoint x="-1220" y="-520" as="targetPoint" />
          </mxGeometry>
        </mxCell>
        <mxCell id="2LizQKYZ_lhDby8cQk81-225" value="cod_hash" style="ellipse;whiteSpace=wrap;html=1;fillColor=#d5e8d4;strokeColor=#82b366;" parent="1" vertex="1">
          <mxGeometry x="-1060" y="-795" width="110" height="50" as="geometry" />
        </mxCell>
        <mxCell id="2LizQKYZ_lhDby8cQk81-226" value="" style="endArrow=none;html=1;rounded=0;exitX=0.993;exitY=0.538;exitDx=0;exitDy=0;exitPerimeter=0;" parent="1" source="2LizQKYZ_lhDby8cQk81-184" edge="1">
          <mxGeometry width="50" height="50" relative="1" as="geometry">
            <mxPoint x="-1220" y="-270" as="sourcePoint" />
            <mxPoint x="-1240" y="-130" as="targetPoint" />
          </mxGeometry>
        </mxCell>
        <mxCell id="2LizQKYZ_lhDby8cQk81-227" value="" style="rhombus;whiteSpace=wrap;html=1;" parent="1" vertex="1">
          <mxGeometry x="-1240" y="-175.5" width="90" height="90" as="geometry" />
        </mxCell>
        <mxCell id="2LizQKYZ_lhDby8cQk81-228" value="Send" style="rhombus;whiteSpace=wrap;html=1;" parent="1" vertex="1">
          <mxGeometry x="-1235" y="-170.5" width="80" height="80" as="geometry" />
        </mxCell>
        <mxCell id="2LizQKYZ_lhDby8cQk81-231" value="" style="rounded=0;whiteSpace=wrap;html=1;fillColor=#ffe6cc;strokeColor=#d79b00;" parent="1" vertex="1">
          <mxGeometry x="-992.5" y="-165.5" width="120" height="60" as="geometry" />
        </mxCell>
        <mxCell id="2LizQKYZ_lhDby8cQk81-232" value="Invite_Channel" style="rounded=0;whiteSpace=wrap;html=1;fillColor=#fff2cc;strokeColor=#d6b656;" parent="1" vertex="1">
          <mxGeometry x="-985" y="-160.5" width="105" height="50" as="geometry" />
        </mxCell>
        <mxCell id="2LizQKYZ_lhDby8cQk81-233" value="N" style="text;html=1;align=center;verticalAlign=middle;resizable=0;points=[];autosize=1;strokeColor=none;fillColor=none;" parent="1" vertex="1">
          <mxGeometry x="-1150" y="-160" width="30" height="30" as="geometry" />
        </mxCell>
        <mxCell id="2LizQKYZ_lhDby8cQk81-239" value="" style="endArrow=none;html=1;rounded=0;exitX=0.487;exitY=0.985;exitDx=0;exitDy=0;exitPerimeter=0;entryX=0.29;entryY=-0.028;entryDx=0;entryDy=0;entryPerimeter=0;" parent="1" source="2LizQKYZ_lhDby8cQk81-240" target="2LizQKYZ_lhDby8cQk81-231" edge="1">
          <mxGeometry width="50" height="50" relative="1" as="geometry">
            <mxPoint x="-840" y="-180.5" as="sourcePoint" />
            <mxPoint x="-950" y="-170" as="targetPoint" />
          </mxGeometry>
        </mxCell>
        <mxCell id="2LizQKYZ_lhDby8cQk81-240" value="&lt;u&gt;id&lt;/u&gt;" style="ellipse;whiteSpace=wrap;html=1;fillColor=#dae8fc;strokeColor=#6c8ebf;" parent="1" vertex="1">
          <mxGeometry x="-1012.5" y="-272.75" width="75" height="35.5" as="geometry" />
        </mxCell>
        <mxCell id="2LizQKYZ_lhDby8cQk81-241" value="" style="endArrow=none;html=1;rounded=0;exitX=0.667;exitY=0.971;exitDx=0;exitDy=0;exitPerimeter=0;entryX=0.25;entryY=0;entryDx=0;entryDy=0;" parent="1" source="2LizQKYZ_lhDby8cQk81-242" target="2LizQKYZ_lhDby8cQk81-231" edge="1">
          <mxGeometry width="50" height="50" relative="1" as="geometry">
            <mxPoint x="-850" y="-130.5" as="sourcePoint" />
            <mxPoint x="-984" y="-160" as="targetPoint" />
          </mxGeometry>
        </mxCell>
        <mxCell id="2LizQKYZ_lhDby8cQk81-242" value="expired" style="ellipse;whiteSpace=wrap;html=1;fillColor=#d5e8d4;strokeColor=#82b366;" parent="1" vertex="1">
          <mxGeometry x="-1055" y="-240" width="70" height="30" as="geometry" />
        </mxCell>
        <mxCell id="2LizQKYZ_lhDby8cQk81-243" value="cod_hash" style="ellipse;whiteSpace=wrap;html=1;fillColor=#d5e8d4;strokeColor=#82b366;" parent="1" vertex="1">
          <mxGeometry x="-872.5" y="-235" width="80" height="40" as="geometry" />
        </mxCell>
        <mxCell id="2LizQKYZ_lhDby8cQk81-244" value="" style="endArrow=none;html=1;rounded=0;entryX=0.75;entryY=0;entryDx=0;entryDy=0;exitX=0.5;exitY=1;exitDx=0;exitDy=0;" parent="1" source="2LizQKYZ_lhDby8cQk81-243" target="2LizQKYZ_lhDby8cQk81-231" edge="1">
          <mxGeometry width="50" height="50" relative="1" as="geometry">
            <mxPoint x="-983" y="-205" as="sourcePoint" />
            <mxPoint x="-973" y="-156" as="targetPoint" />
          </mxGeometry>
        </mxCell>
        <mxCell id="2LizQKYZ_lhDby8cQk81-245" value="privacy" style="ellipse;whiteSpace=wrap;html=1;fillColor=#d5e8d4;strokeColor=#82b366;" parent="1" vertex="1">
          <mxGeometry x="-1271" y="-240" width="80" height="40" as="geometry" />
        </mxCell>
        <mxCell id="2LizQKYZ_lhDby8cQk81-246" value="" style="endArrow=none;html=1;rounded=0;entryX=0.5;entryY=0;entryDx=0;entryDy=0;" parent="1" source="2LizQKYZ_lhDby8cQk81-245" target="2LizQKYZ_lhDby8cQk81-228" edge="1">
          <mxGeometry width="50" height="50" relative="1" as="geometry">
            <mxPoint x="-915" y="-195" as="sourcePoint" />
            <mxPoint x="-905" y="-155" as="targetPoint" />
          </mxGeometry>
        </mxCell>
        <mxCell id="2LizQKYZ_lhDby8cQk81-247" value="&lt;b&gt;&lt;font style=&quot;font-size: 14px;&quot;&gt;&lt;font style=&quot;&quot;&gt;a) privacy: {&lt;/font&gt;&lt;span style=&quot;background-color: initial;&quot;&gt;READ_ONLY,&amp;nbsp;&lt;/span&gt;&lt;span style=&quot;background-color: initial;&quot;&gt;READ_WRITE}&lt;/span&gt;&lt;/font&gt;&lt;/b&gt;&lt;div&gt;&lt;b&gt;&lt;font style=&quot;font-size: 14px;&quot;&gt;&lt;span style=&quot;background-color: initial;&quot;&gt;b) {READ, UNREAD}&lt;/span&gt;&lt;/font&gt;&lt;/b&gt;&lt;/div&gt;" style="text;html=1;align=center;verticalAlign=middle;resizable=0;points=[];autosize=1;strokeColor=none;fillColor=none;" parent="1" vertex="1">
          <mxGeometry x="-815" y="-103" width="290" height="50" as="geometry" />
        </mxCell>
        <mxCell id="2LizQKYZ_lhDby8cQk81-248" value="" style="endArrow=none;html=1;rounded=0;" parent="1" edge="1">
          <mxGeometry width="50" height="50" relative="1" as="geometry">
            <mxPoint x="-1650" y="-520" as="sourcePoint" />
            <mxPoint x="-1650" y="-630" as="targetPoint" />
          </mxGeometry>
        </mxCell>
        <mxCell id="2LizQKYZ_lhDby8cQk81-249" value="" style="endArrow=none;html=1;rounded=0;" parent="1" edge="1">
          <mxGeometry width="50" height="50" relative="1" as="geometry">
            <mxPoint x="-1840" y="-520" as="sourcePoint" />
            <mxPoint x="-1650" y="-520" as="targetPoint" />
          </mxGeometry>
        </mxCell>
        <mxCell id="2LizQKYZ_lhDby8cQk81-250" value="" style="endArrow=none;html=1;rounded=0;" parent="1" edge="1">
          <mxGeometry width="50" height="50" relative="1" as="geometry">
            <mxPoint x="-1840" y="-40" as="sourcePoint" />
            <mxPoint x="-1840" y="-520" as="targetPoint" />
          </mxGeometry>
        </mxCell>
        <mxCell id="2LizQKYZ_lhDby8cQk81-251" value="" style="endArrow=none;html=1;rounded=0;" parent="1" edge="1">
          <mxGeometry width="50" height="50" relative="1" as="geometry">
            <mxPoint x="-1841" y="-40" as="sourcePoint" />
            <mxPoint x="-1195" y="-40" as="targetPoint" />
          </mxGeometry>
        </mxCell>
        <mxCell id="2LizQKYZ_lhDby8cQk81-253" value="" style="endArrow=none;html=1;rounded=0;entryX=0.5;entryY=1;entryDx=0;entryDy=0;" parent="1" target="2LizQKYZ_lhDby8cQk81-227" edge="1">
          <mxGeometry width="50" height="50" relative="1" as="geometry">
            <mxPoint x="-1195" y="-40" as="sourcePoint" />
            <mxPoint x="-1190" y="-80" as="targetPoint" />
          </mxGeometry>
        </mxCell>
        <mxCell id="2LizQKYZ_lhDby8cQk81-254" value="N" style="text;html=1;align=center;verticalAlign=middle;resizable=0;points=[];autosize=1;strokeColor=none;fillColor=none;" parent="1" vertex="1">
          <mxGeometry x="-1271" y="-158" width="30" height="30" as="geometry" />
        </mxCell>
        <mxCell id="2LizQKYZ_lhDby8cQk81-260" value="" style="shape=link;html=1;rounded=0;entryX=-0.009;entryY=0.573;entryDx=0;entryDy=0;exitX=1;exitY=0.5;exitDx=0;exitDy=0;entryPerimeter=0;" parent="1" source="2LizQKYZ_lhDby8cQk81-196" target="2LizQKYZ_lhDby8cQk81-200" edge="1">
          <mxGeometry width="100" relative="1" as="geometry">
            <mxPoint x="-1220" y="-322.5" as="sourcePoint" />
            <mxPoint x="-1120" y="-322.5" as="targetPoint" />
          </mxGeometry>
        </mxCell>
        <mxCell id="2LizQKYZ_lhDby8cQk81-261" value="" style="shape=link;html=1;rounded=0;entryX=-0.008;entryY=0.583;entryDx=0;entryDy=0;entryPerimeter=0;exitX=0.978;exitY=0.496;exitDx=0;exitDy=0;exitPerimeter=0;" parent="1" source="2LizQKYZ_lhDby8cQk81-227" target="2LizQKYZ_lhDby8cQk81-231" edge="1">
          <mxGeometry width="100" relative="1" as="geometry">
            <mxPoint x="-1150" y="-130" as="sourcePoint" />
            <mxPoint x="-1002" y="-131.03" as="targetPoint" />
          </mxGeometry>
        </mxCell>
        <mxCell id="2LizQKYZ_lhDby8cQk81-263" value="" style="endArrow=none;html=1;rounded=0;entryX=0;entryY=0.5;entryDx=0;entryDy=0;" parent="1" target="nza5KFzZEKwIByTnS1me-2" edge="1">
          <mxGeometry width="50" height="50" relative="1" as="geometry">
            <mxPoint x="-1281" y="-451.25" as="sourcePoint" />
            <mxPoint x="-1011" y="-451.25" as="targetPoint" />
          </mxGeometry>
        </mxCell>
        <mxCell id="2LizQKYZ_lhDby8cQk81-265" value="" style="endArrow=none;html=1;rounded=0;entryX=1;entryY=0.5;entryDx=0;entryDy=0;" parent="1" target="nza5KFzZEKwIByTnS1me-2" edge="1">
          <mxGeometry width="50" height="50" relative="1" as="geometry">
            <mxPoint x="-721" y="-451.25" as="sourcePoint" />
            <mxPoint x="-935" y="-451.25" as="targetPoint" />
          </mxGeometry>
        </mxCell>
        <mxCell id="2LizQKYZ_lhDby8cQk81-268" value="1" style="text;html=1;align=center;verticalAlign=middle;resizable=0;points=[];autosize=1;strokeColor=none;fillColor=none;" parent="1" vertex="1">
          <mxGeometry x="-1050" y="-481.25" width="30" height="30" as="geometry" />
        </mxCell>
        <mxCell id="2LizQKYZ_lhDby8cQk81-269" value="N" style="text;html=1;align=center;verticalAlign=middle;resizable=0;points=[];autosize=1;strokeColor=none;fillColor=none;" parent="1" vertex="1">
          <mxGeometry x="-930" y="-481.25" width="30" height="30" as="geometry" />
        </mxCell>
        <mxCell id="2LizQKYZ_lhDby8cQk81-270" value="N" style="text;html=1;align=center;verticalAlign=middle;resizable=0;points=[];autosize=1;strokeColor=none;fillColor=none;" parent="1" vertex="1">
          <mxGeometry x="-1190" y="-85.5" width="30" height="30" as="geometry" />
        </mxCell>
        <mxCell id="wr_HNWqIkFBH5ZyZs7K9-1" value="" style="endArrow=none;html=1;rounded=0;" parent="1" edge="1">
          <mxGeometry width="50" height="50" relative="1" as="geometry">
            <mxPoint x="-1280" y="-450" as="sourcePoint" />
            <mxPoint x="-1280" y="-680" as="targetPoint" />
          </mxGeometry>
        </mxCell>
        <mxCell id="wr_HNWqIkFBH5ZyZs7K9-9" value="&lt;b&gt;&lt;font style=&quot;font-size: 14px;&quot;&gt;a)&lt;/font&gt;&lt;/b&gt;" style="text;html=1;align=center;verticalAlign=middle;resizable=0;points=[];autosize=1;strokeColor=none;fillColor=none;" parent="1" vertex="1">
          <mxGeometry x="-1281" y="-270" width="40" height="30" as="geometry" />
        </mxCell>
        <mxCell id="wr_HNWqIkFBH5ZyZs7K9-11" value="" style="endArrow=none;html=1;rounded=0;" parent="1" edge="1">
          <mxGeometry width="50" height="50" relative="1" as="geometry">
            <mxPoint x="-1650" y="-630" as="sourcePoint" />
            <mxPoint x="-1500" y="-630" as="targetPoint" />
          </mxGeometry>
        </mxCell>
        <mxCell id="ZCVKjMwuYObvbNxH5mQC-1" value="create_at" style="ellipse;whiteSpace=wrap;html=1;fillColor=#d5e8d4;strokeColor=#82b366;" parent="1" vertex="1">
          <mxGeometry x="-2122.5" y="-790" width="92.5" height="50" as="geometry" />
        </mxCell>
        <mxCell id="ZCVKjMwuYObvbNxH5mQC-2" value="" style="endArrow=none;html=1;rounded=0;entryX=0;entryY=0;entryDx=0;entryDy=0;exitX=1;exitY=1;exitDx=0;exitDy=0;" parent="1" source="ZCVKjMwuYObvbNxH5mQC-1" target="2LizQKYZ_lhDby8cQk81-121" edge="1">
          <mxGeometry width="50" height="50" relative="1" as="geometry">
            <mxPoint x="-2164.75" y="-561.25" as="sourcePoint" />
            <mxPoint x="-2150.0000000000005" y="-628.75" as="targetPoint" />
          </mxGeometry>
        </mxCell>
        <mxCell id="nocGTzE3k7oczb2YYQEl-5" value="create_at" style="ellipse;whiteSpace=wrap;html=1;fillColor=#d5e8d4;strokeColor=#82b366;" parent="1" vertex="1">
          <mxGeometry x="-935" y="-292.5" width="92.5" height="50" as="geometry" />
        </mxCell>
        <mxCell id="nocGTzE3k7oczb2YYQEl-6" value="" style="endArrow=none;html=1;rounded=0;entryX=0.5;entryY=0;entryDx=0;entryDy=0;exitX=0.294;exitY=0.952;exitDx=0;exitDy=0;exitPerimeter=0;" parent="1" source="nocGTzE3k7oczb2YYQEl-5" target="2LizQKYZ_lhDby8cQk81-231" edge="1">
          <mxGeometry width="50" height="50" relative="1" as="geometry">
            <mxPoint x="-933.5" y="-103" as="sourcePoint" />
            <mxPoint x="-918.7500000000005" y="-170.5" as="targetPoint" />
          </mxGeometry>
        </mxCell>
        <mxCell id="5CvCxqUvuj_l4y2O4Bkt-1" value="create_at" style="ellipse;whiteSpace=wrap;html=1;fillColor=#d5e8d4;strokeColor=#82b366;" parent="1" vertex="1">
          <mxGeometry x="-815" y="-730" width="92.5" height="50" as="geometry" />
        </mxCell>
        <mxCell id="5CvCxqUvuj_l4y2O4Bkt-2" value="" style="endArrow=none;html=1;rounded=0;entryX=1;entryY=0.5;entryDx=0;entryDy=0;exitX=0.054;exitY=0.725;exitDx=0;exitDy=0;exitPerimeter=0;" parent="1" source="5CvCxqUvuj_l4y2O4Bkt-1" target="2LizQKYZ_lhDby8cQk81-98" edge="1">
          <mxGeometry width="50" height="50" relative="1" as="geometry">
            <mxPoint x="-788.5" y="-546.75" as="sourcePoint" />
            <mxPoint x="-910" y="-623.75" as="targetPoint" />
          </mxGeometry>
        </mxCell>
        <mxCell id="TqDtsUM7-IMskELEl7Li-2" value="" style="endArrow=none;html=1;rounded=0;" parent="1" edge="1">
          <mxGeometry width="50" height="50" relative="1" as="geometry">
            <mxPoint x="-1281" y="-550" as="sourcePoint" />
            <mxPoint x="-1011" y="-550" as="targetPoint" />
          </mxGeometry>
        </mxCell>
        <mxCell id="TqDtsUM7-IMskELEl7Li-3" value="View" style="rhombus;whiteSpace=wrap;html=1;" parent="1" vertex="1">
          <mxGeometry x="-1016" y="-590" width="80" height="80" as="geometry" />
        </mxCell>
        <mxCell id="TqDtsUM7-IMskELEl7Li-4" value="" style="endArrow=none;html=1;rounded=0;entryX=1;entryY=0.5;entryDx=0;entryDy=0;" parent="1" target="TqDtsUM7-IMskELEl7Li-3" edge="1">
          <mxGeometry width="50" height="50" relative="1" as="geometry">
            <mxPoint x="-720" y="-550" as="sourcePoint" />
            <mxPoint x="-861" y="-540" as="targetPoint" />
          </mxGeometry>
        </mxCell>
        <mxCell id="TqDtsUM7-IMskELEl7Li-5" value="N" style="text;html=1;align=center;verticalAlign=middle;resizable=0;points=[];autosize=1;strokeColor=none;fillColor=none;" parent="1" vertex="1">
          <mxGeometry x="-1050" y="-580" width="30" height="30" as="geometry" />
        </mxCell>
        <mxCell id="TqDtsUM7-IMskELEl7Li-6" value="N" style="text;html=1;align=center;verticalAlign=middle;resizable=0;points=[];autosize=1;strokeColor=none;fillColor=none;" parent="1" vertex="1">
          <mxGeometry x="-930" y="-580" width="30" height="30" as="geometry" />
        </mxCell>
        <mxCell id="TqDtsUM7-IMskELEl7Li-7" value="" style="endArrow=none;html=1;rounded=0;" parent="1" edge="1">
          <mxGeometry width="50" height="50" relative="1" as="geometry">
            <mxPoint x="-720" y="-490" as="sourcePoint" />
            <mxPoint x="-720" y="-550" as="targetPoint" />
          </mxGeometry>
        </mxCell>
        <mxCell id="TqDtsUM7-IMskELEl7Li-8" value="read" style="ellipse;whiteSpace=wrap;html=1;fillColor=#d5e8d4;strokeColor=#82b366;" parent="1" vertex="1">
          <mxGeometry x="-907" y="-620" width="80" height="40" as="geometry" />
        </mxCell>
        <mxCell id="TqDtsUM7-IMskELEl7Li-9" value="" style="endArrow=none;html=1;rounded=0;entryX=1;entryY=0;entryDx=0;entryDy=0;" parent="1" source="TqDtsUM7-IMskELEl7Li-8" target="TqDtsUM7-IMskELEl7Li-3" edge="1">
          <mxGeometry width="50" height="50" relative="1" as="geometry">
            <mxPoint x="-905" y="-155" as="sourcePoint" />
            <mxPoint x="-1185" y="-130" as="targetPoint" />
          </mxGeometry>
        </mxCell>
        <mxCell id="TqDtsUM7-IMskELEl7Li-10" value="&lt;b&gt;&lt;font style=&quot;font-size: 14px;&quot;&gt;b)&lt;/font&gt;&lt;/b&gt;" style="text;html=1;align=center;verticalAlign=middle;resizable=0;points=[];autosize=1;strokeColor=none;fillColor=none;" parent="1" vertex="1">
          <mxGeometry x="-1025" y="-615" width="40" height="30" as="geometry" />
        </mxCell>
        <mxCell id="nza5KFzZEKwIByTnS1me-2" value="" style="rhombus;whiteSpace=wrap;html=1;" parent="1" vertex="1">
          <mxGeometry x="-1012.5" y="-497.5" width="90" height="90" as="geometry" />
        </mxCell>
        <mxCell id="nza5KFzZEKwIByTnS1me-3" value="Create" style="rhombus;whiteSpace=wrap;html=1;" parent="1" vertex="1">
          <mxGeometry x="-1007.5" y="-492.5" width="80" height="80" as="geometry" />
        </mxCell>
      </root>
    </mxGraphModel>
  </diagram>
</mxfile>
